<svg clip-rule="evenodd" fill-rule="evenodd" viewBox="0 0 987.68 150" xmlns="http://www.w3.org/2000/svg"><g transform="scale(3.9507)"><path d="M8.699 6.35c4.726-.61 18.135-1.03 14.461 18.346l4.167-.339C25.502 12.414 29.32 6.324 41.258 5.74c-19.8-10.965-31.074.418-32.559.61z" fill="#fac415"/><path d="M27.132 21.628a11.366 11.366 0 0 0 10.64 7.411c6.222 0 11.343-5.121 11.343-11.343 0-6.223-5.121-11.344-11.343-11.344-1.342 0-2.672.238-3.931.703-5.836 2.158-8.864 8.735-6.709 14.573z" fill="#fff"/><circle cx="12.626" cy="17.651" r="11.345" fill="#fff"/><circle cx="12.463" cy="17.54" r="2.097" fill="#ee6946"/><circle cx="37.745" cy="17.54" r="2.096" fill="#00af87"/><path d="M47.898 10.18a16.242 16.242 0 0 1 2.481-5.044l-8.419-.007A30.66 30.66 0 0 0 25.144.461 31.376 31.376 0 0 0 7.9 5.189L0 5.193a16.322 16.322 0 0 1 2.469 5.001 12.605 12.605 0 0 0-2.453 7.471c0 6.914 5.689 12.603 12.603 12.603 3.827 0 7.453-1.744 9.843-4.734l2.685 4.02 2.711-4.054a12.62 12.62 0 0 0 9.929 4.834c6.919 0 12.613-5.694 12.613-12.613 0-2.717-.878-5.363-2.502-7.541zM37.37 5.094c-6.409.186-11.7 5.246-12.173 11.64-.477-6.456-5.846-11.551-12.318-11.689A31.199 31.199 0 0 1 25.144 2.66 29.682 29.682 0 0 1 37.37 5.094zM12.626 27.719h-.001c-5.524 0-10.069-4.545-10.069-10.069 0-5.525 4.545-10.07 10.069-10.07s10.07 4.545 10.07 10.07v.002c-.007 5.521-4.548 10.061-10.069 10.067zm28.634-.571c-5.182 1.91-11.019-.779-12.935-5.96v-.003a10.08 10.08 0 0 1-.622-3.484c0-5.525 4.546-10.07 10.07-10.07 5.525 0 10.07 4.545 10.07 10.07 0 4.207-2.636 7.99-6.583 9.447zM12.471 11.309h-.009c-3.419 0-6.231 2.813-6.231 6.231 0 3.419 2.812 6.231 6.231 6.231 3.418 0 6.231-2.812 6.231-6.231v-.001c-.006-3.412-2.81-6.22-6.222-6.23zm0 10.316h-.008c-2.241 0-4.086-1.844-4.086-4.085s1.845-4.085 4.086-4.085c2.24 0 4.084 1.844 4.085 4.084-.005 2.237-1.841 4.076-4.077 4.086zm25.274-10.316h-.003c-3.419 0-6.231 2.813-6.231 6.231 0 3.419 2.812 6.231 6.231 6.231 3.418 0 6.231-2.812 6.231-6.231v-.001c-.005-3.415-2.813-6.224-6.228-6.23zm0 10.316h-.002c-2.241 0-4.085-1.844-4.085-4.085s1.844-4.085 4.085-4.085 4.085 1.844 4.086 4.084c-.003 2.24-1.845 4.082-4.084 4.086z"/><path d="M178.93 3.712a2.44 2.44 0 0 0 2.428 2.427 2.44 2.44 0 0 0 2.429-2.428 2.44 2.44 0 0 0-2.428-2.429 2.443 2.443 0 0 0-2.429 2.43z" fill="#00af87"/><path d="M63.567 3.544l-3.679 1.268v4.806h-4.082v3.222h3.964v10.343c0 4.924 1.679 6.93 5.791 6.93 1.027.003 2.05-.131 3.042-.4l.161-.043-.046-3.337-.283.099a6.045 6.045 0 0 1-1.931.423c-1.931 0-2.65-1.092-2.65-4.025v-9.99h4.711V9.618h-4.711V3.445zm12.734 9.337V9.618H72.57v20.143h4.083V19.65c0-4.241 1.779-6.576 5.008-6.576.498.005.994.082 1.47.228l.268.076.132-3.979-1.755-.135a6.017 6.017 0 0 0-5.475 3.617zm29.148-3.735a7.824 7.824 0 0 0-6.73 3.743V9.618h-3.732v28.35h4.085V26.975a7.422 7.422 0 0 0 6.223 3.097c5.164 0 8.5-4.229 8.5-10.776 0-6.071-3.353-10.15-8.346-10.15zm-1.136 17.629c-3.231 0-5.241-2.76-5.241-7.205 0-4.28 2.12-7.046 5.399-7.046 3.158 0 5.043 2.619 5.043 7.009 0 4.467-1.993 7.242-5.201 7.242z"/><path d="M125.73 9.146c-2.31-.04-4.598.452-6.688 1.436l-.127.059.046 3.486.318-.178a11.189 11.189 0 0 1 5.391-1.621c2.957 0 4.652 1.696 4.652 4.653v.173h-2.334c-6.724 0-10.424 2.435-10.424 6.855 0 3.547 2.669 6.026 6.496 6.026a7.72 7.72 0 0 0 6.536-3.187v2.913h3.694V17.567c0-5.588-2.542-8.421-7.56-8.421zm3.592 12.113c0 3.472-2.087 5.711-5.321 5.711l-.235.009a3.135 3.135 0 0 1-3.121-3.12l.001-.049c0-2.443 2.335-3.787 6.576-3.787h2.1zM150.641 0v12.352a7.374 7.374 0 0 0-6.301-3.206c-4.99 0-8.342 4.111-8.342 10.228 0 6.3 3.397 10.698 8.264 10.698a7.512 7.512 0 0 0 6.693-3.76v3.449h3.771V0zm-5.317 26.695c-3.113 0-5.046-2.714-5.046-7.085 0-4.376 1.95-7.203 4.966-7.203 3.38 0 5.397 2.693 5.397 7.203 0 4.305-2.088 7.085-5.317 7.085zm27.654-17.077l-5.795 11.625-5.351-11.625h-4.604l9.873 20.143 10.141-20.143zm10.216 0h-3.87v20.143h4.087V9.618zm5.005 5.164c0 2.836 1.948 4.327 5.54 6.081 2.267 1.115 3.453 1.77 3.453 3.341 0 1.607-1.459 2.651-3.712 2.651a11.85 11.85 0 0 1-5.126-1.316l-.3-.145-.136 3.549.143.058c1.676.66 3.461.997 5.263.995 4.995 0 8.224-2.381 8.224-6.067 0-3.074-2.045-4.63-5.582-6.283-2.596-1.215-3.681-1.93-3.681-3.218 0-1.229 1.207-2.021 3.079-2.021a11.3 11.3 0 0 1 4.894 1.118l.292.139.185-3.479-.165-.05a17.623 17.623 0 0 0-4.97-.754c-4.427 0-7.401 2.17-7.401 5.401zm26.088-5.636c-6.139 0-9.952 4.04-9.952 10.543 0 6.504 3.813 10.544 9.952 10.544 6.164 0 9.995-4.04 9.995-10.544 0-6.503-3.831-10.543-9.995-10.543zm.039 17.748c-3.39 0-5.672-2.913-5.672-7.244 0-4.355 2.282-7.282 5.672-7.282 3.448 0 5.675 2.856 5.675 7.282 0 4.4-2.227 7.244-5.675 7.244zm17.492-14.013V9.618h-3.73v20.143h4.083V19.65c0-4.241 1.781-6.576 5.007-6.576a5.16 5.16 0 0 1 1.47.228l.269.076.133-3.979-1.755-.135a6.022 6.022 0 0 0-5.477 3.617z" fill="#00af87"/><path d="M90.812 9.618h-3.871v20.143h4.087V9.618zm-4.265-5.906c.001 1.333 1.097 2.429 2.43 2.429s2.429-1.097 2.429-2.43a2.44 2.44 0 0 0-2.429-2.429 2.446 2.446 0 0 0-2.43 2.43z"/><path d="M248.98 6.771a3.582 3.582 0 0 1 1.021 2.552 3.515 3.515 0 0 1-1.081 2.59 3.709 3.709 0 0 1-2.571 1.062 3.576 3.576 0 0 1-2.591-1.112 3.617 3.617 0 0 1-1.049-2.54 3.686 3.686 0 0 1 1.108-2.623 3.545 3.545 0 0 1 2.532-1.031 3.597 3.597 0 0 1 2.631 1.102zm-4.701.4a3.023 3.023 0 0 0-.899 2.152 3.017 3.017 0 0 0 2.969 2.98 3.035 3.035 0 0 0 2.112-.86 3.02 3.02 0 0 0 .039-4.212 2.947 2.947 0 0 0-2.139-.901 2.89 2.89 0 0 0-2.082.841zm2.14.069c1.151 0 1.732.412 1.732 1.161a1.1 1.1 0 0 1-.851 1.082l.889 1.759h-1.208l-.751-1.589h-.322v1.589h-1.099V7.24zm-.511 1.762h.393c.48 0 .719-.171.719-.52 0-.39-.25-.55-.779-.55h-.333z" fill="#00af87" fill-opacity=".5"/></g></svg>