<svg width="611" height="150" viewBox="20.5 248.5 146.64 150" xmlns="http://www.w3.org/2000/svg"><path d="M-51.089 301.66h61.813v11.507h-24.338v64.868h-13.34v-64.868H-51.19zm59.165 21.079h11.405v10.692h.204c.407-1.527 1.12-2.953 2.138-4.379s2.24-2.75 3.768-3.87c1.426-1.221 3.055-2.138 4.888-2.85 1.731-.714 3.564-1.12 5.397-1.12 1.426 0 2.444.1 2.953.1.51.103 1.12.205 1.63.205v11.71c-.815-.203-1.732-.305-2.648-.407s-1.731-.203-2.648-.203c-2.037 0-3.971.407-5.804 1.222-1.833.814-3.36 2.036-4.787 3.564-1.323 1.63-2.444 3.564-3.258 5.906s-1.222 5.092-1.222 8.147v26.273H7.872zm88.391 55.295H84.451v-7.74h-.204c-1.527 2.852-3.767 4.99-6.72 6.722-2.954 1.73-6.009 2.546-9.064 2.546-7.23 0-12.525-1.732-15.784-5.398-3.258-3.564-4.888-9.063-4.888-16.293V322.74h12.22v33.91c0 4.888.917 8.35 2.852 10.285 1.833 2.037 4.48 3.055 7.84 3.055 2.546 0 4.685-.407 6.416-1.222 1.731-.814 3.157-1.833 4.175-3.156 1.12-1.324 1.833-2.954 2.343-4.787.509-1.833.712-3.87.712-6.008V322.74h12.22v55.295zm20.774-17.719c.407 3.564 1.731 6.008 4.073 7.536 2.343 1.425 5.194 2.138 8.452 2.138 1.12 0 2.444-.102 3.87-.305 1.426-.204 2.851-.51 4.073-1.019 1.324-.509 2.343-1.222 3.157-2.24.815-1.018 1.222-2.24 1.12-3.768-.101-1.527-.61-2.851-1.73-3.87s-2.445-1.73-4.074-2.443c-1.63-.611-3.564-1.12-5.703-1.528-2.138-.407-4.277-.916-6.517-1.426-2.24-.509-4.48-1.12-6.62-1.833-2.138-.713-3.97-1.629-5.702-2.953-1.629-1.222-3.055-2.75-3.971-4.684-1.018-1.935-1.528-4.175-1.528-7.027 0-3.055.713-5.499 2.24-7.535 1.426-2.037 3.361-3.666 5.601-4.888 2.24-1.222 4.787-2.139 7.536-2.648 2.75-.51 5.397-.713 7.841-.713 2.851 0 5.6.306 8.147.917 2.546.61 4.99 1.527 7.026 2.953 2.139 1.324 3.87 3.157 5.194 5.295 1.425 2.139 2.24 4.786 2.647 7.841h-12.729c-.61-2.953-1.934-4.888-3.971-5.906-2.139-1.018-4.48-1.527-7.23-1.527-.815 0-1.935.101-3.055.203-1.222.204-2.24.408-3.36.815-1.019.407-1.935 1.018-2.648 1.731s-1.12 1.731-1.12 2.953c0 1.528.509 2.648 1.527 3.564s2.342 1.63 4.073 2.343c1.63.61 3.565 1.12 5.703 1.527 2.138.408 4.379.917 6.619 1.426 2.24.509 4.379 1.12 6.517 1.833s4.074 1.63 5.703 2.953c1.63 1.222 3.055 2.75 4.073 4.583s1.528 4.175 1.528 6.822c0 3.26-.713 6.009-2.24 8.35-1.528 2.241-3.463 4.176-5.805 5.601s-5.092 2.444-7.943 3.157c-2.953.611-5.805 1.019-8.656 1.019-3.462 0-6.72-.408-9.674-1.222-2.953-.815-5.6-2.037-7.74-3.565-2.138-1.629-3.869-3.564-5.09-6.008-1.223-2.342-1.936-5.193-2.038-8.554h12.322v.102zm40.224-37.576h9.267v-16.701h12.22v16.599h10.998v9.063h-10.998v29.532c0 1.324.102 2.342.203 3.36.102.917.408 1.732.713 2.343a3.978 3.978 0 0 0 1.731 1.425c.815.306 1.833.51 3.26.51.814 0 1.73 0 2.545-.102s1.731-.204 2.546-.407v9.47c-1.324.204-2.648.305-3.972.407-1.324.204-2.546.204-3.971.204-3.259 0-5.805-.305-7.74-.916-1.934-.611-3.462-1.528-4.582-2.648-1.12-1.222-1.833-2.648-2.24-4.379s-.611-3.87-.713-6.11v-32.587h-9.267v-9.267zm41.039 0h11.507v7.536h.204c1.73-3.26 4.073-5.5 7.128-6.925s6.314-2.139 9.98-2.139c4.378 0 8.146.713 11.405 2.343 3.258 1.527 5.906 3.564 8.044 6.313 2.139 2.648 3.768 5.805 4.787 9.369 1.018 3.564 1.629 7.434 1.629 11.405 0 3.768-.51 7.332-1.426 10.794-1.018 3.462-2.444 6.62-4.379 9.267-1.934 2.647-4.378 4.786-7.433 6.415s-6.518 2.444-10.591 2.444c-1.732 0-3.565-.203-5.296-.509s-3.462-.815-5.091-1.527-3.157-1.63-4.48-2.75c-1.427-1.12-2.547-2.444-3.463-3.87h-.204v27.597h-12.22v-75.764zm42.668 27.699c0-2.444-.305-4.888-1.018-7.23-.611-2.342-1.63-4.379-2.953-6.212-1.324-1.833-2.954-3.258-4.787-4.379-1.934-1.12-4.175-1.629-6.619-1.629-5.091 0-8.961 1.731-11.609 5.295-2.546 3.565-3.87 8.35-3.87 14.257 0 2.852.306 5.398 1.019 7.74s1.63 4.378 3.055 6.11c1.324 1.73 2.953 3.055 4.888 4.073s4.073 1.527 6.619 1.527c2.851 0 5.092-.61 7.027-1.73 1.934-1.121 3.462-2.648 4.786-4.38a17.921 17.921 0 0 0 2.647-6.211c.51-2.444.815-4.787.815-7.23zm21.487-48.778h12.22v11.507h-12.22zm0 21.079h12.22v55.295h-12.22zm23.116-21.079h12.22v76.375h-12.22zm49.491 77.902c-4.379 0-8.35-.713-11.813-2.24-3.462-1.528-6.314-3.463-8.758-6.008-2.342-2.546-4.175-5.703-5.397-9.267a36.201 36.201 0 0 1-1.935-11.711c0-4.175.611-8.045 1.935-11.61a27.084 27.084 0 0 1 5.397-9.266c2.343-2.546 5.296-4.583 8.758-6.008 3.462-1.426 7.434-2.24 11.813-2.24s8.35.712 11.813 2.24c3.462 1.426 6.314 3.462 8.758 6.008 2.342 2.546 4.175 5.703 5.397 9.267a35.58 35.58 0 0 1 1.935 11.609c0 4.277-.611 8.146-1.935 11.71-1.324 3.565-3.055 6.62-5.397 9.268-2.343 2.545-5.296 4.582-8.758 6.008-3.462 1.425-7.332 2.24-11.813 2.24zm0-9.674c2.648 0 5.092-.611 7.027-1.731 2.036-1.12 3.564-2.648 4.888-4.48 1.323-1.834 2.24-3.972 2.85-6.213.612-2.342.917-4.684.917-7.128 0-2.342-.305-4.684-.916-7.027s-1.528-4.378-2.852-6.211c-1.323-1.833-2.953-3.259-4.888-4.38-2.036-1.12-4.378-1.73-7.026-1.73s-5.092.61-7.027 1.73c-2.036 1.121-3.564 2.649-4.887 4.38-1.324 1.833-2.24 3.87-2.852 6.212a27.737 27.737 0 0 0-.916 7.026c0 2.444.305 4.786.916 7.128.611 2.343 1.528 4.38 2.852 6.212 1.323 1.833 2.953 3.36 4.888 4.48 2.036 1.223 4.378 1.732 7.026 1.732zm31.568-47.15h9.267v-16.7h12.22v16.599h10.998v9.063H388.32v29.532c0 1.324.102 2.342.203 3.36.102.917.408 1.732.713 2.343a3.978 3.978 0 0 0 1.731 1.425c.815.306 1.833.51 3.26.51.814 0 1.73 0 2.545-.102s1.731-.204 2.546-.408v9.47c-1.324.205-2.648.306-3.972.408-1.324.204-2.546.204-3.971.204-3.259 0-5.805-.306-7.74-.917-1.934-.61-3.462-1.527-4.582-2.647-1.12-1.222-1.833-2.648-2.24-4.379s-.611-3.87-.713-6.11v-32.587h-9.267v-9.267z"/><path d="M-65.345 301.66h-55.906l-17.21-53.157-17.312 53.157-55.906-.102 45.214 32.892-17.312 53.157 45.214-32.892 45.214 32.892-17.21-53.157z" fill="#00b67a"/><path d="M-106.69 346.46l-3.87-12.016-27.902 20.265z" fill="#005128"/></svg>